<?xml version="1.0" standalone="no"?>
<!DOCTYPE svg PUBLIC "-//W3C//DTD SVG 20010904//EN"
 "http://www.w3.org/TR/2001/REC-SVG-20010904/DTD/svg10.dtd">
<svg version="1.0" xmlns="http://www.w3.org/2000/svg"
 width="498.000000pt" height="274.000000pt" viewBox="0 0 498.000000 274.000000"
 preserveAspectRatio="xMidYMid meet">

<g transform="translate(0.000000,274.000000) scale(0.100000,-0.100000)"
fill="#000000" stroke="none">
<path d="M0 1370 l0 -1370 2490 0 2490 0 0 1370 0 1370 -2490 0 -2490 0 0
-1370z m3685 1108 c40 -18 30 -26 -40 -30 -65 -3 -78 5 -53 30 15 15 60 15 93
0z m-172 -104 c12 -12 -134 -180 -164 -189 -25 -8 -24 -27 1 -50 28 -26 22
-45 -20 -59 -43 -14 -50 -39 -15 -62 23 -15 51 -17 198 -16 179 1 247 -8 247
-33 0 -19 -20 -19 -56 0 -38 20 -53 19 -105 -5 -24 -11 -64 -20 -89 -20 -53 0
-119 -17 -140 -35 -8 -7 -26 -16 -40 -20 -38 -12 -80 -47 -80 -67 0 -11 -11
-23 -26 -28 -40 -16 -154 -122 -154 -145 0 -11 -7 -29 -15 -39 -8 -11 -15 -28
-15 -39 0 -10 -13 -37 -29 -60 -16 -23 -42 -78 -56 -121 -15 -44 -43 -103 -61
-132 -19 -29 -34 -64 -34 -78 0 -14 -9 -65 -21 -113 -11 -48 -22 -116 -23
-151 -2 -35 -8 -68 -14 -74 -10 -10 -158 -21 -232 -18 -73 4 -87 4 -168 2 -75
-2 -86 -5 -105 -26 l-22 -25 -20 26 c-17 21 -30 25 -73 26 -88 1 -92 -7 -92
-195 0 -151 -1 -158 -20 -158 -18 0 -20 7 -21 63 0 34 -3 118 -5 187 -3 69 -4
137 -4 152 0 32 -25 49 -85 57 -31 5 -43 12 -53 34 -10 20 -20 27 -43 27 -16
0 -29 -2 -29 -4 0 -16 15 -36 27 -36 8 0 12 -4 9 -9 -3 -5 -42 -12 -87 -16
-76 -7 -82 -9 -119 -46 -36 -37 -42 -39 -99 -39 -33 0 -72 -5 -86 -12 -23 -10
-28 -10 -36 5 -6 9 -19 17 -29 17 -14 0 -18 5 -13 17 6 15 4 16 -9 5 -13 -10
-15 -9 -14 7 1 19 55 100 67 101 3 0 17 10 30 21 13 12 40 31 59 44 19 12 42
30 49 39 23 28 130 83 226 117 129 45 140 52 245 154 95 92 201 169 295 216
86 43 238 134 308 184 79 57 171 180 188 253 7 26 20 61 30 78 11 17 19 39 19
48 0 9 3 16 8 16 4 0 13 9 20 20 10 17 10 26 -4 51 -19 38 -9 52 37 51 23 0
33 4 36 19 6 22 19 24 54 5 24 -12 29 -11 59 15 18 16 35 29 39 29 3 0 17 -12
30 -25 40 -43 66 -43 186 2 28 11 66 29 85 41 35 22 61 28 73 16z m-2075
-1608 c27 -26 27 -27 27 -176 0 -149 0 -150 -27 -176 -37 -37 -118 -44 -165
-15 -41 26 -53 69 -53 197 0 119 12 159 54 185 46 29 128 22 164 -15z m539 2
c19 -19 27 -40 31 -77 l5 -51 -57 0 -56 0 0 41 c0 28 -4 39 -12 37 -14 -5 -24
-192 -13 -235 9 -37 25 -26 25 17 0 22 -4 40 -10 40 -5 0 -10 16 -10 35 l0 35
65 0 65 0 0 -111 0 -110 -47 1 c-27 0 -64 -2 -83 -5 -85 -14 -120 43 -120 195
0 132 11 175 53 201 46 29 128 22 164 -13z m1222 21 c39 -14 51 -35 51 -89 l0
-41 -47 3 c-44 3 -48 5 -51 31 -4 30 -25 32 -30 4 -3 -17 7 -28 76 -77 23 -17
47 -42 52 -56 13 -33 13 -110 0 -135 -25 -46 -113 -63 -175 -33 -37 17 -55 54
-55 110 0 34 0 34 49 34 l48 0 7 -40 c8 -49 26 -53 26 -6 0 30 -6 38 -50 66
-66 43 -80 64 -80 125 0 55 18 91 54 105 30 12 88 12 125 -1z m250 0 c38 -14
51 -35 51 -88 l0 -41 -50 0 c-49 0 -50 1 -50 31 0 32 -22 37 -28 6 -3 -17 7
-28 76 -77 23 -17 47 -42 52 -56 13 -33 13 -110 0 -135 -25 -46 -113 -63 -175
-33 -37 17 -55 54 -55 110 l0 34 50 0 c46 0 50 -2 50 -24 0 -13 3 -31 6 -40
11 -28 24 -17 24 18 0 30 -6 38 -50 66 -66 43 -80 64 -80 125 0 55 18 91 54
105 30 12 88 12 125 -1z m-2299 -154 l0 -155 30 0 c29 0 30 -2 30 -45 l0 -45
-85 0 -84 0 -3 200 -3 200 58 0 57 0 0 -155z m466 80 l22 -70 1 73 1 72 48 0
47 0 0 -200 0 -200 -51 0 -50 0 -20 73 -19 72 -3 -72 -3 -73 -44 0 -44 0 -3
200 -3 201 50 -3 49 -3 22 -70z m624 -80 l0 -155 30 0 c29 0 30 -2 30 -45 l0
-45 -85 0 -84 0 -3 200 -3 200 58 0 57 0 0 -155z m190 -45 l0 -200 -55 0 -55
0 0 184 c0 101 -3 191 -6 200 -5 14 3 16 55 16 l61 0 0 -200z m134 158 c3 -24
9 -70 13 -103 7 -62 8 -60 18 68 l7 77 59 0 60 0 -5 -32 c-8 -46 -46 -343 -46
-357 0 -7 -30 -11 -85 -11 -47 0 -85 3 -85 6 0 7 -48 331 -55 367 -4 27 -4 27
55 27 l59 0 5 -42z m344 0 c-3 -41 -4 -43 -35 -43 -31 0 -33 -2 -33 -32 0 -30
3 -33 30 -33 29 0 30 -2 30 -45 0 -43 -1 -45 -30 -45 -28 0 -30 -3 -30 -35 0
-33 2 -35 35 -35 35 0 35 0 35 -45 l0 -45 -90 0 -90 0 0 200 0 200 91 0 90 0
-3 -42z m837 17 c21 -20 25 -34 25 -83 0 -40 -5 -64 -15 -72 -13 -11 -13 -14
0 -27 10 -10 15 -36 15 -81 0 -37 3 -77 6 -89 6 -22 4 -23 -50 -23 l-56 0 0
84 c0 47 -4 88 -10 91 -6 4 -10 -27 -10 -84 l0 -91 -55 0 -55 0 0 200 0 200
90 0 c83 0 93 -2 115 -25z m172 -57 c-4 -46 -7 -113 -7 -150 l0 -68 -44 0 -44
0 -6 73 c-3 39 -8 107 -11 150 l-5 77 62 0 61 0 -6 -82z m-7 -273 l0 -45 -50
0 -50 0 0 45 0 45 50 0 50 0 0 -45z m-3662 -367 l-1 -43 -5 40 -5 40 -13 -40
-12 -40 -1 36 c-1 38 5 49 26 49 9 0 12 -13 11 -42z m-201 -25 c-3 -10 -5 -2
-5 17 0 19 2 27 5 18 2 -10 2 -26 0 -35z m90 12 c2 -26 1 -27 -5 -7 -4 13 -11
23 -17 23 -5 0 -13 -10 -17 -23 -5 -21 -6 -20 -7 7 -1 31 -15 25 -24 -10 -3
-13 -5 -8 -6 13 -1 31 0 32 37 30 33 -3 37 -6 39 -33z m61 -2 c-2 -30 -7 -38
-22 -38 -13 0 -20 8 -23 25 -5 35 3 50 27 50 18 0 21 -5 18 -37z m79 -10 c-3
-10 -5 -2 -5 17 0 19 2 27 5 18 2 -10 2 -26 0 -35z m61 19 c2 -14 -3 -24 -15
-29 -10 -4 -21 -11 -25 -17 -4 -6 -8 8 -8 32 0 39 2 43 23 40 14 -2 23 -11 25
-26z m86 19 c3 -5 -2 -8 -12 -7 -9 0 -17 -6 -17 -14 0 -8 8 -14 17 -14 10 1
15 -2 12 -7 -8 -14 -31 -10 -38 6 -12 31 22 63 38 36z m56 -6 c15 -18 6 -45
-15 -45 -18 0 -30 24 -21 45 7 19 20 19 36 0z m97 -20 c2 -26 1 -27 -5 -7 -4
13 -11 23 -17 23 -5 0 -13 -10 -17 -23 -5 -21 -6 -20 -7 7 -1 31 -15 25 -24
-10 -3 -13 -5 -8 -6 13 -1 31 0 32 37 30 33 -3 37 -6 39 -33z m1670 -1 c13 -4
20 -11 16 -20 -8 -20 -36 -17 -51 6 -13 22 -6 25 35 14z"/>
<path d="M1590 1023 c-14 -3 -29 -9 -34 -14 -15 -14 24 -10 59 6 30 13 22 16
-25 8z"/>
<path d="M1505 980 c-3 -5 1 -10 9 -10 8 0 18 5 21 10 3 6 -1 10 -9 10 -8 0
-18 -4 -21 -10z"/>
<path d="M1337 713 c-9 -8 -9 -216 -1 -237 16 -42 24 -5 24 114 0 119 -4 142
-23 123z"/>
<path d="M3650 681 c0 -23 5 -41 10 -41 6 0 10 15 10 34 0 19 -4 38 -10 41 -6
4 -10 -10 -10 -34z"/>
<path d="M165 70 c-4 -6 -3 -16 3 -22 6 -6 12 -6 17 2 4 6 3 16 -3 22 -6 6
-12 6 -17 -2z"/>
<path d="M168 23 c7 -3 16 -2 19 1 4 3 -2 6 -13 5 -11 0 -14 -3 -6 -6z"/>
<path d="M305 70 c-8 -13 4 -32 16 -25 12 8 12 35 0 35 -6 0 -13 -4 -16 -10z"/>
<path d="M450 60 c0 -13 5 -20 13 -17 6 2 12 10 12 17 0 7 -6 15 -12 18 -8 2
-13 -5 -13 -18z"/>
</g>
</svg>
